<svg xmlns="http://www.w3.org/2000/svg" width="200" height="300" viewBox="0 0 200 300">
  <title>trump-merged</title>
  <g id="Layer_4" data-name="Layer 4">
    <g>
      <polygon points="148 102.7 148 104.7 150 104.7 152 104.7 152 102.7 152 100.7 150 100.7 150 98.7 148 98.7 148 100.7 148 102.7" fill="none"/>
      <polygon points="78 102.7 78 100.7 78 98.7 76 98.7 76 100.7 74 100.7 74 102.7 76 102.7 78 102.7" fill="none"/>
      <polygon points="132 104.7 134 104.7 134 102.7 134 100.7 134 98.7 132 98.7 132 100.7 130 100.7 130 102.7 132 102.7 132 104.7" fill="none"/>
      <polygon points="92 98.7 92 100.7 92 102.7 94 102.7 96 102.7 96 100.7 98 100.7 98 98.7 96 98.7 94 98.7 94 96.7 92 96.7 92 98.7" fill="none"/>
      <polygon points="198 212.7 196 212.7 194 212.7 192 212.7 190 212.7 188 212.7 188 214.7 190 214.7 192 214.7 194 214.7 196 214.7 198 214.7 198 216.7 200 216.7 200 214.7 200 212.7 198 212.7" fill="#0a0a0a"/>
      <polygon points="196 288.6 196 286.6 194 286.6 194 284.6 192 284.6 192 282.6 190 282.6 190 280.6 188 280.6 186 280.6 186 278.6 184 278.6 184 276.6 182 276.6 180 276.6 180 274.6 178 274.6 178 272.6 176 272.6 176 270.6 174 270.6 174 268.6 172 268.6 172 266.6 170 266.6 170 264.6 168 264.6 168 262.6 166 262.6 166 260.6 164 260.6 164 258.6 162 258.6 162 256.6 160 256.6 160 254.7 158 254.7 158 252.7 156 252.7 156 250.7 156 248.7 154 248.7 154 250.7 154 252.7 154 254.7 154 256.6 154 258.6 154 260.6 154 262.6 154 264.6 154 266.6 154 268.6 154 270.6 154 272.6 154 274.6 154 276.6 154 278.6 154 280.6 154 282.6 154 284.6 154 286.6 154 288.6 154 290.6 154 292.6 152 292.6 152 294.6 152 296.6 152 298.6 152 300.6 154 300.6 156 300.6 158 300.6 160 300.6 162 300.6 164 300.6 166 300.6 168 300.6 170 300.6 172 300.6 174 300.6 176 300.6 178 300.6 180 300.6 182 300.6 184 300.6 186 300.6 188 300.6 190 300.6 192 300.6 194 300.6 196 300.6 198 300.6 200 300.6 200 298.6 200 296.6 200 294.6 200 292.6 200 290.6 200 288.6 198 288.6 196 288.6" fill="#181919"/>
      <polygon points="198 284.6 196 284.6 196 282.6 194 282.6 194 280.6 192 280.6 192 278.6 190 278.6 188 278.6 188 276.6 186 276.6 186 274.6 184 274.6 182 274.6 182 272.6 180 272.6 180 270.6 178 270.6 178 268.6 176 268.6 176 266.6 174 266.6 174 264.6 172 264.6 172 262.6 170 262.6 170 260.6 168 260.6 168 258.6 166 258.6 166 256.6 164 256.6 164 254.7 162 254.7 160 254.7 160 256.6 162 256.6 162 258.6 164 258.6 164 260.6 166 260.6 166 262.6 168 262.6 168 264.6 170 264.6 170 266.6 172 266.6 172 268.6 174 268.6 174 270.6 176 270.6 176 272.6 178 272.6 178 274.6 180 274.6 180 276.6 182 276.6 184 276.6 184 278.6 186 278.6 186 280.6 188 280.6 190 280.6 190 282.6 192 282.6 192 284.6 194 284.6 194 286.6 196 286.6 196 288.6 198 288.6 200 288.6 200 286.6 198 286.6 198 284.6" fill="#0a0a0a"/>
      <polygon points="198 262.6 196 262.6 196 260.6 196 258.6 194 258.6 194 256.6 192 256.6 192 254.7 190 254.7 190 252.7 188 252.7 188 250.7 186 250.7 186 248.7 184 248.7 184 246.7 182 246.7 182 244.7 182 242.7 180 242.7 180 240.7 180 238.7 178 238.7 178 236.7 176 236.7 176 234.7 176 232.7 174 232.7 174 230.7 174 228.7 172 228.7 172 226.7 172 224.7 172 222.7 170 222.7 170 220.7 170 218.7 168 218.7 168 216.7 166 216.7 166 214.7 164 214.7 164 212.7 164 210.7 162 210.7 162 208.7 162 206.7 160 206.7 160 204.7 158 204.7 158 206.7 158 208.7 156 208.7 156 210.7 156 212.7 156 214.7 156 216.7 156 218.7 156 220.7 156 222.7 156 224.7 156 226.7 154 226.7 154 228.7 154 230.7 154 232.7 154 234.7 154 236.7 154 238.7 154 240.7 154 242.7 156 242.7 156 244.7 156 246.7 158 246.7 158 248.7 158 250.7 160 250.7 160 252.7 160 254.7 162 254.7 164 254.7 164 256.6 166 256.6 166 258.6 168 258.6 168 260.6 170 260.6 170 262.6 172 262.6 172 264.6 174 264.6 174 266.6 176 266.6 176 268.6 178 268.6 178 270.6 180 270.6 180 272.6 182 272.6 182 274.6 184 274.6 186 274.6 186 276.6 188 276.6 188 278.6 190 278.6 192 278.6 192 280.6 194 280.6 194 282.6 196 282.6 196 284.6 198 284.6 198 286.6 200 286.6 200 284.6 200 282.6 200 280.6 200 278.6 200 276.6 200 274.6 200 272.6 200 270.6 200 268.6 200 266.6 200 264.6 198 264.6 198 262.6" fill="#181919"/>
      <polygon points="198 258.6 198 256.6 196 256.6 196 254.7 194 254.7 194 252.7 192 252.7 192 250.7 190 250.7 190 248.7 188 248.7 188 246.7 186 246.7 186 244.7 184 244.7 184 242.7 184 240.7 182 240.7 182 238.7 180 238.7 180 240.7 180 242.7 182 242.7 182 244.7 182 246.7 184 246.7 184 248.7 186 248.7 186 250.7 188 250.7 188 252.7 190 252.7 190 254.7 192 254.7 192 256.6 194 256.6 194 258.6 196 258.6 196 260.6 196 262.6 198 262.6 198 264.6 200 264.6 200 262.6 200 260.6 198 260.6 198 258.6" fill="#0a0a0a"/>
      <polygon points="198 214.7 196 214.7 194 214.7 192 214.7 190 214.7 188 214.7 188 212.7 186 212.7 184 212.7 182 212.7 180 212.7 178 212.7 176 212.7 174 212.7 174 210.7 172 210.7 170 210.7 168 210.7 168 208.7 166 208.7 166 210.7 166 212.7 168 212.7 168 214.7 170 214.7 170 216.7 170 218.7 172 218.7 172 220.7 172 222.7 174 222.7 174 224.7 174 226.7 176 226.7 176 228.7 176 230.7 178 230.7 178 232.7 178 234.7 180 234.7 180 236.7 180 238.7 182 238.7 182 240.7 184 240.7 184 242.7 184 244.7 186 244.7 186 246.7 188 246.7 188 248.7 190 248.7 190 250.7 192 250.7 192 252.7 194 252.7 194 254.7 196 254.7 196 256.6 198 256.6 198 258.6 198 260.6 200 260.6 200 258.6 200 256.6 200 254.7 200 252.7 200 250.7 200 248.7 200 246.7 200 244.7 200 242.7 200 240.7 200 238.7 200 236.7 200 234.7 200 232.7 200 230.7 200 228.7 200 226.7 200 224.7 200 222.7 200 220.7 200 218.7 200 216.7 198 216.7 198 214.7" fill="#181919"/>
      <polygon points="178 118.7 180 118.7 180 120.7 180 122.7 180 124.7 180 126.7 180 128.7 180 130.7 180 132.7 178 132.7 178 134.7 178 136.7 180 136.7 180 134.7 182 134.7 182 132.7 182 130.7 182 128.7 182 126.7 182 124.7 182 122.7 182 120.7 182 118.7 182 116.7 180 116.7 180 114.7 178 114.7 178 116.7 178 118.7" fill="#a39b25"/>
      <polygon points="176 138.7 176 140.7 178 140.7 178 138.7 178 136.7 176 136.7 176 138.7" fill="#a39b25"/>
      <rect x="176" y="54.6" width="2" height="2" fill="#c6ba28"/>
      <polygon points="176 212.7 178 212.7 180 212.7 182 212.7 184 212.7 186 212.7 188 212.7 188 210.7 186 210.7 184 210.7 182 210.7 180 210.7 178 210.7 176 210.7 174 210.7 174 212.7 176 212.7" fill="#0a0a0a"/>
      <polygon points="176 138.7 176 136.7 176 134.7 176 132.7 176 130.7 176 128.7 174 128.7 174 126.7 174 124.7 174 122.7 172 122.7 170 122.7 170 120.7 168 120.7 168 118.7 168 116.7 168 114.7 168 112.7 166 112.7 166 110.7 166 108.7 166 106.7 166 104.7 166 102.7 166 100.7 166 98.7 166 96.7 166 94.7 166 92.7 166 90.7 164 90.7 164 88.7 164 86.7 164 84.7 164 82.7 164 80.7 162 80.7 162 78.7 162 76.7 162 74.7 162 72.7 160 72.7 160 70.7 158 70.7 158 68.7 156 68.7 156 66.7 154 66.7 154 64.7 152 64.7 150 64.7 148 64.7 146 64.7 144 64.7 142 64.7 140 64.7 138 64.7 136 64.7 134 64.7 134 66.7 136 66.7 138 66.7 140 66.7 142 66.7 144 66.7 146 66.7 148 66.7 150 66.7 152 66.7 152 68.7 154 68.7 154 70.7 156 70.7 156 72.7 158 72.7 158 74.7 160 74.7 160 76.7 160 78.7 160 80.7 160 82.7 162 82.7 162 84.7 162 86.7 162 88.7 162 90.7 162 92.7 164 92.7 164 94.7 164 96.7 164 98.7 164 100.7 164 102.7 164 104.7 164 106.7 164 108.7 164 110.7 164 112.7 164 114.7 166 114.7 166 116.7 166 118.7 166 120.7 166 122.7 168 122.7 168 124.7 170 124.7 172 124.7 172 126.7 172 128.7 172 130.7 174 130.7 174 132.7 174 134.7 174 136.7 174 138.7 174 140.7 174 142.7 172 142.7 172 144.7 172 146.7 170 146.7 170 148.7 170 150.7 172 150.7 172 148.7 174 148.7 174 146.7 174 144.7 176 144.7 176 146.7 176 148.7 176 150.7 174 150.7 174 152.7 174 154.7 172 154.7 172 156.7 170 156.7 168 156.7 168 154.7 168 152.7 168 150.7 168 148.7 168 146.7 168 144.7 168 142.7 168 140.7 168 138.7 168 136.7 168 134.7 168 132.7 168 130.7 168 128.7 168 126.7 168 124.7 166 124.7 164 124.7 164 126.7 166 126.7 166 128.7 166 130.7 166 132.7 166 134.7 166 136.7 166 138.7 166 140.7 166 142.7 166 144.7 166 146.7 166 148.7 166 150.7 166 152.7 164 152.7 164 154.7 164 156.7 166 156.7 166 158.7 166 160.7 164 160.7 164 162.7 164 164.7 164 166.7 162 166.7 162 168.7 162 170.7 162 172.7 162 174.7 162 176.7 162 178.7 162 180.7 160 180.7 160 182.7 160 184.7 160 186.7 160 188.7 160 190.7 160 192.7 160 194.7 158 194.7 158 196.7 158 198.7 158 200.7 158 202.7 156 202.7 156 204.7 156 206.7 154 206.7 154 208.7 154 210.7 152 210.7 152 212.7 150 212.7 150 214.7 150 216.7 148 216.7 148 218.7 146 218.7 146 220.7 146 222.7 144 222.7 144 224.7 142 224.7 140 224.7 140 226.7 138 226.7 136 226.7 136 228.7 134 228.7 132 228.7 132 230.7 130 230.7 128 230.7 128 232.7 130 232.7 132 232.7 134 232.7 134 230.7 136 230.7 138 230.7 138 228.7 140 228.7 142 228.7 142 226.7 144 226.7 146 226.7 146 224.7 148 224.7 148 222.7 148 220.7 150 220.7 150 218.7 152 218.7 152 216.7 152 214.7 154 214.7 154 212.7 156 212.7 156 210.7 156 208.7 158 208.7 158 206.7 158 204.7 160 204.7 160 202.7 160 200.7 160 198.7 160 196.7 162 196.7 162 194.7 162 192.7 162 190.7 162 188.7 162 186.7 164 186.7 164 184.7 164 182.7 164 180.7 166 180.7 166 178.7 166 176.7 166 174.7 166 172.7 168 172.7 168 170.7 168 168.7 168 166.7 168 164.7 168 162.7 168 160.7 168 158.7 170 158.7 172 158.7 174 158.7 174 156.7 176 156.7 176 154.7 176 152.7 178 152.7 178 150.7 178 148.7 178 146.7 178 144.7 178 142.7 178 140.7 176 140.7 176 138.7" fill="#bf8327"/>
      <polygon points="172 226.7 172 228.7 174 228.7 174 230.7 174 232.7 176 232.7 176 234.7 176 236.7 178 236.7 178 238.7 180 238.7 180 236.7 180 234.7 178 234.7 178 232.7 178 230.7 176 230.7 176 228.7 176 226.7 174 226.7 174 224.7 174 222.7 172 222.7 172 224.7 172 226.7" fill="#0a0a0a"/>
      <polygon points="170 222.7 172 222.7 172 220.7 172 218.7 170 218.7 170 220.7 170 222.7" fill="#0a0a0a"/>
      <polygon points="170 210.7 172 210.7 174 210.7 174 208.7 172 208.7 170 208.7 168 208.7 168 210.7 170 210.7" fill="#0a0a0a"/>
      <polygon points="168 128.7 168 130.7 168 132.7 168 134.7 168 136.7 168 138.7 168 140.7 168 142.7 168 144.7 168 146.7 168 148.7 168 150.7 168 152.7 168 154.7 168 156.7 170 156.7 172 156.7 172 154.7 174 154.7 174 152.7 174 150.7 176 150.7 176 148.7 176 146.7 176 144.7 174 144.7 174 146.7 174 148.7 172 148.7 172 150.7 170 150.7 170 148.7 170 146.7 172 146.7 172 144.7 172 142.7 174 142.7 174 140.7 174 138.7 174 136.7 174 134.7 174 132.7 174 130.7 172 130.7 172 128.7 172 126.7 172 124.7 170 124.7 168 124.7 168 126.7 168 128.7" fill="#d18e2c"/>
      <polygon points="162 210.7 164 210.7 164 212.7 164 214.7 166 214.7 166 216.7 168 216.7 168 218.7 170 218.7 170 216.7 170 214.7 168 214.7 168 212.7 166 212.7 166 210.7 166 208.7 168 208.7 168 206.7 166 206.7 164 206.7 162 206.7 162 208.7 162 210.7" fill="#0a0a0a"/>
      <polygon points="164 28.6 166 28.6 168 28.6 168 30.6 170 30.6 170 32.6 170 34.6 172 34.6 172 36.6 170 36.6 170 38.6 170 40.6 168 40.6 168 42.6 166 42.6 166 44.6 164 44.6 164 46.6 166 46.6 168 46.6 168 44.6 170 44.6 170 42.6 172 42.6 172 40.6 172 38.6 174 38.6 174 36.6 174 34.6 176 34.6 176 36.6 176 38.6 178 38.6 178 40.6 178 42.6 180 42.6 180 44.6 182 44.6 182 46.6 182 48.6 180 48.6 180 50.6 178 50.6 178 52.6 176 52.6 174 52.6 174 54.6 172 54.6 172 56.6 170 56.6 170 58.6 168 58.6 168 60.6 166 60.6 166 62.6 168 62.6 170 62.6 170 60.6 172 60.6 172 58.6 174 58.6 174 56.6 176 56.6 176 54.6 178 54.6 178 56.6 176 56.6 176 58.6 176 60.6 174 60.6 174 62.6 174 64.7 174 66.7 172 66.7 172 68.7 172 70.7 172 72.7 170 72.7 170 74.7 170 76.7 168 76.7 168 78.7 170 78.7 172 78.7 172 76.7 172 74.7 174 74.7 174 76.7 174 78.7 174 80.7 174 82.7 172 82.7 172 84.7 172 86.7 172 88.7 172 90.7 172 92.7 170 92.7 170 94.7 168 94.7 168 96.7 170 96.7 172 96.7 172 94.7 174 94.7 174 96.7 174 98.7 174 100.7 174 102.7 174 104.7 174 106.7 174 108.7 172 108.7 172 110.7 172 112.7 170 112.7 170 114.7 170 116.7 172 116.7 172 114.7 174 114.7 174 112.7 174 110.7 176 110.7 176 112.7 176 114.7 178 114.7 178 112.7 178 110.7 178 108.7 176 108.7 176 106.7 176 104.7 176 102.7 176 100.7 176 98.7 176 96.7 176 94.7 176 92.7 176 90.7 176 88.7 176 86.7 176 84.7 176 82.7 176 80.7 176 78.7 176 76.7 176 74.7 176 72.7 176 70.7 176 68.7 176 66.7 176 64.7 176 62.6 178 62.6 178 60.6 178 58.6 180 58.6 180 56.6 182 56.6 182 54.6 182 52.6 184 52.6 184 50.6 184 48.6 184 46.6 184 44.6 184 42.6 184 40.6 182 40.6 182 38.6 182 36.6 180 36.6 180 34.6 178 34.6 178 32.6 176 32.6 176 30.6 174 30.6 174 28.6 172 28.6 170 28.6 170 26.6 168 26.6 166 26.6 164 26.6 162 26.6 162 28.6 164 28.6" fill="#a39b25"/>
      <rect x="160" y="204.6" width="2" height="2" fill="#0a0a0a"/>
      <polygon points="108 126.7 108 128.7 106 128.7 106 130.7 104 130.7 104 132.7 102 132.7 102 130.7 102 128.7 104 128.7 104 126.7 106 126.7 106 124.7 106 122.7 106 120.7 106 118.7 106 116.7 104 116.7 104 118.7 104 120.7 104 122.7 104 124.7 102 124.7 102 126.7 100 126.7 100 128.7 98 128.7 98 130.7 96 130.7 96 132.7 94 132.7 94 134.7 94 136.7 92 136.7 92 138.7 92 140.7 92 142.7 90 142.7 90 144.7 90 146.7 90 148.7 88 148.7 88 150.7 88 152.7 88 154.7 88 156.7 88 158.7 90 158.7 90 156.7 90 154.7 90 152.7 90 150.7 92 150.7 92 148.7 92 146.7 92 144.7 94 144.7 94 142.7 94 140.7 94 138.7 96 138.7 96 136.7 96 134.7 98 134.7 98 132.7 100 132.7 100 134.7 102 134.7 102 136.7 104 136.7 106 136.7 108 136.7 110 136.7 112 136.7 114 136.7 116 136.7 118 136.7 120 136.7 122 136.7 124 136.7 126 136.7 128 136.7 130 136.7 130 138.7 132 138.7 132 140.7 134 140.7 134 142.7 134 144.7 136 144.7 136 146.7 136 148.7 138 148.7 138 150.7 138 152.7 138 154.7 138 156.7 138 158.7 138 160.7 138 162.7 138 164.7 136 164.7 136 166.7 136 168.7 138 168.7 138 166.7 140 166.7 140 164.7 140 162.7 140 160.7 140 158.7 140 156.7 140 154.7 140 152.7 140 150.7 140 148.7 140 146.7 138 146.7 138 144.7 138 142.7 136 142.7 136 140.7 136 138.7 134 138.7 134 136.7 132 136.7 132 134.7 132 132.7 134 132.7 134 130.7 134 128.7 134 126.7 134 124.7 132 124.7 130 124.7 130 122.7 128 122.7 128 120.7 128 118.7 128 116.7 126 116.7 126 114.7 126 112.7 126 110.7 128 110.7 128 112.7 130 112.7 132 112.7 132 114.7 134 114.7 136 114.7 138 114.7 140 114.7 142 114.7 144 114.7 146 114.7 148 114.7 150 114.7 152 114.7 154 114.7 156 114.7 156 112.7 158 112.7 158 110.7 156 110.7 154 110.7 154 112.7 152 112.7 150 112.7 148 112.7 146 112.7 144 112.7 142 112.7 140 112.7 138 112.7 136 112.7 134 112.7 134 110.7 132 110.7 130 110.7 130 108.7 128 108.7 128 106.7 126 106.7 126 104.7 126 102.7 124 102.7 124 100.7 124 98.7 124 96.7 124 94.7 122 94.7 122 96.7 122 98.7 122 100.7 122 102.7 122 104.7 124 104.7 124 106.7 124 108.7 124 110.7 124 112.7 124 114.7 124 116.7 124 118.7 126 118.7 126 120.7 126 122.7 126 124.7 128 124.7 128 126.7 130 126.7 132 126.7 132 128.7 132 130.7 130 130.7 128 130.7 128 128.7 126 128.7 124 128.7 124 130.7 122 130.7 122 132.7 120 132.7 120 134.7 118 134.7 116 134.7 116 132.7 116 130.7 114 130.7 114 128.7 112 128.7 112 126.7 110 126.7 108 126.7" fill="#bf8327"/>
      <polygon points="152 216.7 152 218.7 150 218.7 150 220.7 148 220.7 148 222.7 148 224.7 146 224.7 146 226.7 144 226.7 142 226.7 142 228.7 140 228.7 138 228.7 138 230.7 136 230.7 134 230.7 134 232.7 132 232.7 130 232.7 128 232.7 128 234.7 126 234.7 124 234.7 124 236.7 126 236.7 128 236.7 130 236.7 130 234.7 132 234.7 134 234.7 136 234.7 136 232.7 138 232.7 140 232.7 140 230.7 142 230.7 144 230.7 144 228.7 146 228.7 148 228.7 148 226.7 150 226.7 150 224.7 150 222.7 152 222.7 152 220.7 154 220.7 154 218.7 154 216.7 154 214.7 152 214.7 152 216.7" fill="#daded5"/>
      <polygon points="126 90.7 128 90.7 130 90.7 130 88.7 132 88.7 134 88.7 136 88.7 138 88.7 140 88.7 142 88.7 144 88.7 146 88.7 146 86.7 148 86.7 150 86.7 152 86.7 154 86.7 154 84.7 154 82.7 156 82.7 156 80.7 154 80.7 154 78.7 152 78.7 152 76.7 150 76.7 148 76.7 146 76.7 144 76.7 142 76.7 142 78.7 140 78.7 138 78.7 138 80.7 136 80.7 134 80.7 134 82.7 132 82.7 130 82.7 130 84.7 128 84.7 126 84.7 126 86.7 124 86.7 122 86.7 122 88.7 122 90.7 124 90.7 126 90.7" fill="#a39b25"/>
      <polygon points="152 296.6 152 294.6 152 292.6 154 292.6 154 290.6 154 288.6 154 286.6 154 284.6 154 282.6 154 280.6 154 278.6 154 276.6 154 274.6 154 272.6 154 270.6 154 268.6 154 266.6 154 264.6 154 262.6 154 260.6 154 258.6 154 256.6 154 254.7 154 252.7 154 250.7 154 248.7 156 248.7 156 250.7 156 252.7 158 252.7 158 254.7 160 254.7 160 252.7 160 250.7 158 250.7 158 248.7 158 246.7 156 246.7 156 244.7 156 242.7 154 242.7 154 240.7 154 238.7 154 236.7 154 234.7 154 232.7 154 230.7 154 228.7 154 226.7 156 226.7 156 224.7 156 222.7 156 220.7 156 218.7 156 216.7 156 214.7 156 212.7 154 212.7 154 214.7 154 216.7 154 218.7 154 220.7 154 222.7 154 224.7 152 224.7 152 226.7 152 228.7 152 230.7 152 232.7 152 234.7 152 236.7 152 238.7 152 240.7 152 242.7 152 244.7 152 246.7 152 248.7 152 250.7 152 252.7 152 254.7 152 256.6 152 258.6 152 260.6 152 262.6 152 264.6 152 266.6 152 268.6 152 270.6 152 272.6 152 274.6 152 276.6 152 278.6 152 280.6 152 282.6 152 284.6 152 286.6 152 288.6 152 290.6 150 290.6 150 292.6 150 294.6 150 296.6 150 298.6 150 300.6 152 300.6 152 298.6 152 296.6" fill="#0a0a0a"/>
      <path d="M150,296.6v-6h2v-66h2v-4h-2v2h-2v4h-2v2h-4v2h-4v2h-4v2h-6v2h-6v8h2v4h2v2h4v2h2v2h2v2h2v2h2v2h2v2h2v2h2v4h2v2h-4v-4h-2v-2h-2v-2h-2v-2h-2v-2h-2v-2h-2v-2h-2v-2h-2v-2h-2v-2h-2v2h-2v2h-2v2h-2v2h-2v2h-4v2h-4v2h2v6h2v2h2v6h2v4h2v4h2v10h2v6h28v-4Zm-26-32h2v2h-2Zm12,30v2h-2v-4h-2v-4h-2v-4h-2v-2h-2v-2h-2v-2h-4v-2h-2v-2h4v2h2v2h4v2h2v4h2v2h2v6h2Zm0-20h-2v-2h-2v-2h-2v-2h-2v-2h2v2h2v2h2v2h2Zm12,8v2h-2v-2h-2v-2h-2v-2h-2v-2h-2v-2h2v2h2v2h4v2h2Z" fill="#fff"/>
      <polygon points="146 278.6 144 278.6 142 278.6 142 280.6 144 280.6 144 282.6 146 282.6 146 284.6 148 284.6 148 282.6 148 280.6 146 280.6 146 278.6" fill="#daded5"/>
      <polygon points="144 100.7 144 98.7 142 98.7 140 98.7 138 98.7 138 100.7 138 102.7 138 104.7 140 104.7 142 104.7 144 104.7 144 102.7 144 100.7" fill="#191919"/>
      <rect x="140" y="276.6" width="2" height="2" fill="#daded5"/>
      <rect x="140" y="40.6" width="2" height="2" fill="#c6ba28"/>
      <rect x="138" y="274.6" width="2" height="2" fill="#daded5"/>
      <polygon points="134 294.6 134 296.6 136 296.6 136 294.6 136 292.6 134 292.6 134 294.6" fill="#daded5"/>
      <rect x="134" y="272.6" width="2" height="2" fill="#daded5"/>
      <polygon points="134 102.7 134 104.7 136 104.7 138 104.7 138 102.7 138 100.7 138 98.7 140 98.7 142 98.7 144 98.7 144 100.7 144 102.7 144 104.7 146 104.7 148 104.7 148 102.7 148 100.7 148 98.7 146 98.7 146 96.7 144 96.7 142 96.7 140 96.7 138 96.7 136 96.7 136 98.7 134 98.7 134 100.7 134 102.7" fill="#245c93"/>
      <polygon points="134 36.6 136 36.6 136 38.6 138 38.6 138 40.6 138 42.6 140 42.6 140 40.6 142 40.6 142 42.6 140 42.6 140 44.6 140 46.6 142 46.6 142 48.6 142 50.6 144 50.6 144 52.6 146 52.6 146 54.6 146 56.6 146 58.6 146 60.6 148 60.6 148 58.6 148 56.6 148 54.6 148 52.6 148 50.6 148 48.6 146 48.6 146 46.6 146 44.6 144 44.6 144 42.6 144 40.6 144 38.6 142 38.6 142 36.6 140 36.6 140 34.6 138 34.6 138 32.6 136 32.6 134 32.6 134 34.6 134 36.6" fill="#a39b25"/>
      <rect x="132" y="270.6" width="2" height="2" fill="#daded5"/>
      <polygon points="146 188.7 144 188.7 144 190.7 144 192.7 144 194.7 142 194.7 142 196.7 142 198.7 142 200.7 140 200.7 140 202.7 140 204.7 138 204.7 138 206.7 138 208.7 136 208.7 136 210.7 136 212.7 134 212.7 134 214.7 134 216.7 132 216.7 132 218.7 132 220.7 130 220.7 130 222.7 128 222.7 128 224.7 126 224.7 126 226.7 128 226.7 130 226.7 130 224.7 132 224.7 132 222.7 134 222.7 134 220.7 134 218.7 136 218.7 136 216.7 136 214.7 138 214.7 138 212.7 138 210.7 140 210.7 140 208.7 140 206.7 142 206.7 142 204.7 142 202.7 144 202.7 144 200.7 144 198.7 144 196.7 146 196.7 146 194.7 146 192.7 146 190.7 148 190.7 148 188.7 148 186.7 146 186.7 146 188.7" fill="#bf8327"/>
      <polygon points="134 288.6 134 286.6 132 286.6 132 284.6 130 284.6 130 286.6 130 288.6 132 288.6 132 290.6 132 292.6 134 292.6 134 290.6 134 288.6" fill="#daded5"/>
      <rect x="130" y="268.6" width="2" height="2" fill="#daded5"/>
      <rect x="128" y="266.6" width="2" height="2" fill="#daded5"/>
      <polygon points="130 252.7 130 254.7 132 254.7 132 256.6 134 256.6 134 258.6 136 258.6 136 260.6 138 260.6 138 262.6 140 262.6 140 264.6 142 264.6 142 266.6 144 266.6 144 268.6 144 270.6 146 270.6 148 270.6 148 268.6 146 268.6 146 266.6 146 264.6 144 264.6 144 262.6 142 262.6 142 260.6 140 260.6 140 258.6 138 258.6 138 256.6 136 256.6 136 254.7 134 254.7 134 252.7 132 252.7 132 250.7 130 250.7 128 250.7 128 252.7 130 252.7" fill="#daded5"/>
      <path d="M128,104.6h2v2h24v-2h2v-2h-2v-4h-2v-2h-4v-2H134v2h-4v2h-2v2h-2v2h2Zm2-4h2v-2h4v-2h10v2h4v2h2v4H132v-2h-2Z" fill="#bf8327"/>
      <rect x="126" y="248.6" width="2" height="2" fill="#daded5"/>
      <polygon points="130 280.6 128 280.6 128 278.6 126 278.6 124 278.6 124 280.6 126 280.6 126 282.6 128 282.6 128 284.6 130 284.6 130 282.6 130 280.6" fill="#daded5"/>
      <rect x="124" y="264.6" width="2" height="2" fill="#daded5"/>
      <polygon points="126 234.7 128 234.7 128 232.7 126 232.7 124 232.7 122 232.7 122 234.7 120 234.7 118 234.7 118 236.7 116 236.7 114 236.7 112 236.7 110 236.7 108 236.7 106 236.7 104 236.7 102 236.7 100 236.7 98 236.7 98 234.7 96 234.7 94 234.7 92 234.7 92 232.7 90 232.7 88 232.7 86 232.7 86 234.7 88 234.7 90 234.7 90 236.7 92 236.7 94 236.7 96 236.7 96 238.7 98 238.7 100 238.7 102 238.7 104 238.7 104 240.7 106 240.7 108 240.7 108 238.7 110 238.7 110 240.7 112 240.7 114 240.7 116 240.7 116 238.7 118 238.7 120 238.7 120 236.7 122 236.7 124 236.7 124 234.7 126 234.7" fill="#bf8327"/>
      <polygon points="122 226.7 120 226.7 118 226.7 116 226.7 114 226.7 112 226.7 112 228.7 110 228.7 108 228.7 106 228.7 104 228.7 104 230.7 106 230.7 108 230.7 110 230.7 112 230.7 114 230.7 114 228.7 116 228.7 118 228.7 120 228.7 122 228.7 124 228.7 126 228.7 126 226.7 124 226.7 122 226.7" fill="#bf8327"/>
      <polygon points="122 296.6 122 294.6 120 294.6 120 292.6 120 290.6 120 288.6 120 286.6 120 284.6 118 284.6 118 282.6 118 280.6 116 280.6 116 278.6 116 276.6 114 276.6 114 274.6 114 272.6 114 270.6 112 270.6 112 268.6 110 268.6 110 266.6 110 264.6 110 262.6 108 262.6 108 264.6 108 266.6 108 268.6 108 270.6 110 270.6 110 272.6 112 272.6 112 274.6 112 276.6 112 278.6 114 278.6 114 280.6 114 282.6 116 282.6 116 284.6 116 286.6 118 286.6 118 288.6 118 290.6 118 292.6 118 294.6 118 296.6 120 296.6 120 298.6 120 300.6 122 300.6 122 298.6 122 296.6" fill="#3a0113"/>
      <polygon points="122 276.6 122 274.6 120 274.6 118 274.6 118 276.6 120 276.6 120 278.6 122 278.6 124 278.6 124 276.6 122 276.6" fill="#daded5"/>
      <polygon points="122 242.7 120 242.7 120 240.7 120 238.7 118 238.7 116 238.7 116 240.7 114 240.7 112 240.7 110 240.7 110 238.7 108 238.7 108 240.7 106 240.7 104 240.7 104 238.7 102 238.7 100 238.7 98 238.7 96 238.7 96 236.7 94 236.7 92 236.7 92 238.7 92 240.7 90 240.7 90 242.7 90 244.7 88 244.7 88 246.7 86 246.7 86 248.7 84 248.7 84 250.7 84 252.7 86 252.7 86 254.7 88 254.7 90 254.7 90 256.6 92 256.6 94 256.6 94 258.6 96 258.6 98 258.6 98 260.6 100 260.6 102 260.6 104 260.6 106 260.6 106 258.6 108 258.6 110 258.6 110 256.6 112 256.6 114 256.6 114 254.7 116 254.7 116 252.7 118 252.7 118 250.7 120 250.7 120 248.7 122 248.7 122 246.7 122 244.7 122 242.7" fill="#48232b"/>
      <rect x="120" y="238.6" width="2" height="2" fill="#3a0113"/>
      <polygon points="120 236.7 120 238.7 122 238.7 122 240.7 120 240.7 120 242.7 122 242.7 122 244.7 122 246.7 124 246.7 124 248.7 126 248.7 126 246.7 126 244.7 124 244.7 124 242.7 124 240.7 124 238.7 124 236.7 122 236.7 120 236.7" fill="#daded5"/>
      <polygon points="120 296.6 118 296.6 118 294.6 118 292.6 118 290.6 118 288.6 118 286.6 116 286.6 116 284.6 116 282.6 114 282.6 114 280.6 114 278.6 112 278.6 112 276.6 112 274.6 112 272.6 110 272.6 110 270.6 108 270.6 108 268.6 108 266.6 108 264.6 108 262.6 106 262.6 104 262.6 102 262.6 100 262.6 100 264.6 100 266.6 100 268.6 98 268.6 98 270.6 98 272.6 98 274.6 96 274.6 96 276.6 94 276.6 94 278.6 92 278.6 92 280.6 92 282.6 90 282.6 90 284.6 88 284.6 88 286.6 88 288.6 86 288.6 86 290.6 86 292.6 86 294.6 86 296.6 86 298.6 86 300.6 88 300.6 90 300.6 92 300.6 94 300.6 96 300.6 98 300.6 100 300.6 102 300.6 104 300.6 106 300.6 108 300.6 110 300.6 112 300.6 114 300.6 116 300.6 118 300.6 120 300.6 120 298.6 120 296.6" fill="#48232b"/>
      <polygon points="120 60.6 122 60.6 122 62.6 124 62.6 126 62.6 126 64.7 128 64.7 130 64.7 132 64.7 134 64.7 134 62.6 132 62.6 130 62.6 128 62.6 128 60.6 126 60.6 124 60.6 124 58.6 122 58.6 120 58.6 118 58.6 118 60.6 120 60.6" fill="#bf8327"/>
      <polygon points="112 48.6 112 50.6 114 50.6 114 52.6 116 52.6 116 54.6 118 54.6 118 52.6 118 50.6 116 50.6 116 48.6 114 48.6 114 46.6 112 46.6 110 46.6 110 48.6 112 48.6" fill="#a39b25"/>
      <polygon points="116 40.6 116 42.6 118 42.6 120 42.6 122 42.6 122 44.6 124 44.6 126 44.6 126 46.6 128 46.6 130 46.6 130 48.6 132 48.6 132 50.6 132 52.6 134 52.6 134 54.6 134 56.6 136 56.6 136 54.6 136 52.6 136 50.6 136 48.6 134 48.6 134 46.6 132 46.6 132 44.6 132 42.6 130 42.6 128 42.6 128 40.6 126 40.6 126 38.6 124 38.6 122 38.6 120 38.6 120 36.6 118 36.6 118 38.6 116 38.6 114 38.6 114 40.6 116 40.6" fill="#a39b25"/>
      <polygon points="108 46.6 110 46.6 110 44.6 108 44.6 106 44.6 106 46.6 108 46.6" fill="#a39b25"/>
      <polygon points="108 24.6 108 26.6 110 26.6 112 26.6 114 26.6 116 26.6 116 28.6 118 28.6 120 28.6 122 28.6 122 30.6 124 30.6 126 30.6 126 32.6 128 32.6 130 32.6 132 32.6 134 32.6 134 30.6 132 30.6 130 30.6 130 28.6 128 28.6 126 28.6 124 28.6 124 26.6 122 26.6 120 26.6 118 26.6 118 24.6 116 24.6 114 24.6 112 24.6 110 24.6 110 22.6 108 22.6 106 22.6 106 24.6 108 24.6" fill="#a39b25"/>
      <polygon points="104 94.7 104 96.7 104 98.7 104 100.7 102 100.7 102 102.7 100 102.7 100 104.7 98 104.7 98 106.7 96 106.7 94 106.7 94 108.7 92 108.7 90 108.7 88 108.7 88 110.7 86 110.7 84 110.7 82 110.7 80 110.7 78 110.7 76 110.7 76 108.7 74 108.7 72 108.7 70 108.7 70 110.7 72 110.7 74 110.7 74 112.7 76 112.7 78 112.7 80 112.7 82 112.7 84 112.7 86 112.7 88 112.7 90 112.7 90 110.7 92 110.7 94 110.7 96 110.7 96 108.7 98 108.7 100 108.7 100 106.7 102 106.7 102 104.7 104 104.7 104 102.7 106 102.7 106 100.7 106 98.7 106 96.7 108 96.7 108 94.7 106 94.7 104 94.7" fill="#bf8327"/>
      <polygon points="96 38.6 96 40.6 98 40.6 100 40.6 100 42.6 102 42.6 102 44.6 104 44.6 106 44.6 106 42.6 104 42.6 104 40.6 102 40.6 102 38.6 100 38.6 98 38.6 98 36.6 96 36.6 94 36.6 94 38.6 96 38.6" fill="#a39b25"/>
      <polygon points="102 226.7 100 226.7 100 224.7 98 224.7 96 224.7 96 222.7 94 222.7 94 220.7 92 220.7 92 218.7 92 216.7 90 216.7 90 214.7 88 214.7 88 212.7 88 210.7 86 210.7 86 208.7 84 208.7 84 206.7 84 204.7 82 204.7 82 202.7 82 200.7 82 198.7 80 198.7 80 196.7 82 196.7 82 194.7 82 192.7 80 192.7 80 190.7 80 188.7 78 188.7 78 186.7 78 184.7 78 182.7 76 182.7 74 182.7 74 184.7 76 184.7 76 186.7 76 188.7 76 190.7 78 190.7 78 192.7 78 194.7 76 194.7 76 196.7 78 196.7 78 198.7 78 200.7 80 200.7 80 202.7 80 204.7 80 206.7 82 206.7 82 208.7 82 210.7 84 210.7 84 212.7 86 212.7 86 214.7 86 216.7 88 216.7 88 218.7 90 218.7 90 220.7 90 222.7 92 222.7 92 224.7 94 224.7 94 226.7 96 226.7 98 226.7 98 228.7 100 228.7 102 228.7 104 228.7 104 226.7 102 226.7" fill="#bf8327"/>
      <rect x="98" y="102.6" width="2" height="2" fill="#d18e2c"/>
      <polygon points="100 102.7 100 100.7 100 98.7 100 96.7 98 96.7 96 96.7 94 96.7 94 98.7 96 98.7 98 98.7 98 100.7 96 100.7 96 102.7 94 102.7 92 102.7 90 102.7 88 102.7 86 102.7 84 102.7 82 102.7 80 102.7 78 102.7 76 102.7 74 102.7 74 104.7 76 104.7 78 104.7 80 104.7 82 104.7 84 104.7 86 104.7 88 104.7 90 104.7 92 104.7 94 104.7 96 104.7 98 104.7 98 102.7 100 102.7" fill="#bf8327"/>
      <polygon points="96 20.6 96 22.6 98 22.6 100 22.6 102 22.6 104 22.6 106 22.6 106 20.6 104 20.6 102 20.6 100 20.6 98 20.6 98 18.6 96 18.6 94 18.6 94 20.6 96 20.6" fill="#a39b25"/>
      <polygon points="60 32.6 62 32.6 64 32.6 66 32.6 68 32.6 70 32.6 72 32.6 74 32.6 76 32.6 78 32.6 80 32.6 82 32.6 82 34.6 84 34.6 86 34.6 88 34.6 88 36.6 90 36.6 92 36.6 94 36.6 94 34.6 92 34.6 90 34.6 90 32.6 88 32.6 86 32.6 84 32.6 84 30.6 82 30.6 80 30.6 78 30.6 76 30.6 74 30.6 72 30.6 70 30.6 68 30.6 66 30.6 64 30.6 62 30.6 60 30.6 58 30.6 58 32.6 58 34.6 60 34.6 60 32.6" fill="#a39b25"/>
      <polygon points="90 262.6 88 262.6 88 264.6 86 264.6 86 266.6 84 266.6 84 268.6 86 268.6 88 268.6 88 266.6 90 266.6 90 264.6 92 264.6 92 262.6 92 260.6 90 260.6 90 262.6" fill="#daded5"/>
      <polygon points="92 98.7 92 96.7 90 96.7 88 96.7 88 98.7 88 100.7 88 102.7 90 102.7 92 102.7 92 100.7 92 98.7" fill="#245c93"/>
      <polygon points="88 44.6 88 42.6 86 42.6 86 40.6 84 40.6 82 40.6 80 40.6 78 40.6 78 38.6 76 38.6 74 38.6 72 38.6 70 38.6 68 38.6 66 38.6 64 38.6 62 38.6 60 38.6 60 40.6 62 40.6 64 40.6 66 40.6 68 40.6 70 40.6 72 40.6 74 40.6 76 40.6 76 42.6 78 42.6 80 42.6 82 42.6 84 42.6 84 44.6 86 44.6 86 46.6 88 46.6 90 46.6 92 46.6 92 44.6 90 44.6 88 44.6" fill="#a39b25"/>
      <polygon points="94 18.6 94 16.6 92 16.6 90 16.6 90 18.6 92 18.6 94 18.6" fill="#a39b25"/>
      <polygon points="88 98.7 88 96.7 86 96.7 84 96.7 82 96.7 82 98.7 82 100.7 82 102.7 84 102.7 86 102.7 88 102.7 88 100.7 88 98.7" fill="#191919"/>
      <polygon points="88 14.7 90 14.7 90 12.7 92 12.7 94 12.7 96 12.7 98 12.7 100 12.7 102 12.7 104 12.7 106 12.7 108 12.7 110 12.7 110 14.7 112 14.7 114 14.7 116 14.7 118 14.7 118 16.6 120 16.6 122 16.6 124 16.6 126 16.6 128 16.6 128 18.6 130 18.6 132 18.6 134 18.6 134 20.6 136 20.6 138 20.6 138 22.6 140 22.6 140 24.6 142 24.6 144 24.6 144 26.6 146 26.6 146 28.6 148 28.6 148 30.6 150 30.6 152 30.6 152 32.6 152 34.6 154 34.6 154 36.6 154 38.6 154 40.6 154 42.6 154 44.6 156 44.6 156 46.6 156 48.6 156 50.6 156 52.6 156 54.6 158 54.6 158 56.6 160 56.6 160 54.6 160 52.6 158 52.6 158 50.6 158 48.6 158 46.6 158 44.6 158 42.6 156 42.6 156 40.6 156 38.6 156 36.6 156 34.6 156 32.6 154 32.6 154 30.6 154 28.6 152 28.6 150 28.6 150 26.6 152 26.6 154 26.6 156 26.6 158 26.6 160 26.6 162 26.6 162 24.6 160 24.6 158 24.6 156 24.6 154 24.6 152 24.6 150 24.6 148 24.6 146 24.6 146 22.6 144 22.6 142 22.6 142 20.6 140 20.6 140 18.6 138 18.6 136 18.6 136 16.6 134 16.6 132 16.6 130 16.6 130 14.7 128 14.7 126 14.7 124 14.7 122 14.7 120 14.7 120 12.7 118 12.7 116 12.7 114 12.7 112 12.7 112 10.7 110 10.7 108 10.7 106 10.7 104 10.7 102 10.7 100 10.7 98 10.7 96 10.7 94 10.7 92 10.7 90 10.7 88 10.7 88 12.7 86 12.7 84 12.7 84 14.7 86 14.7 88 14.7" fill="#a39b25"/>
      <polygon points="86 296.6 86 294.6 86 292.6 86 290.6 86 288.6 88 288.6 88 286.6 88 284.6 90 284.6 90 282.6 92 282.6 92 280.6 92 278.6 94 278.6 94 276.6 96 276.6 96 274.6 98 274.6 98 272.6 98 270.6 98 268.6 100 268.6 100 266.6 100 264.6 100 262.6 102 262.6 104 262.6 106 262.6 108 262.6 108 260.6 110 260.6 112 260.6 112 258.6 114 258.6 116 258.6 116 256.6 118 256.6 118 254.7 120 254.7 120 252.7 122 252.7 122 250.7 124 250.7 124 248.7 124 246.7 122 246.7 122 248.7 120 248.7 120 250.7 118 250.7 118 252.7 116 252.7 116 254.7 114 254.7 114 256.6 112 256.6 110 256.6 110 258.6 108 258.6 106 258.6 106 260.6 104 260.6 102 260.6 100 260.6 98 260.6 98 258.6 96 258.6 94 258.6 94 256.6 92 256.6 90 256.6 90 254.7 88 254.7 86 254.7 86 252.7 84 252.7 84 254.7 84 256.6 86 256.6 88 256.6 88 258.6 90 258.6 92 258.6 92 260.6 94 260.6 96 260.6 96 262.6 98 262.6 98 264.6 98 266.6 96 266.6 96 268.6 96 270.6 96 272.6 94 272.6 94 274.6 92 274.6 92 276.6 90 276.6 90 278.6 90 280.6 88 280.6 88 282.6 86 282.6 86 284.6 86 286.6 84 286.6 84 288.6 84 290.6 84 292.6 84 294.6 84 296.6 84 298.6 84 300.6 86 300.6 86 298.6 86 296.6" fill="#3a0113"/>
      <polygon points="84 230.7 84 228.7 82 228.7 80 228.7 80 230.7 82 230.7 82 232.7 84 232.7 86 232.7 86 230.7 84 230.7" fill="#bf8327"/>
      <polygon points="86 96.7 88 96.7 88 94.7 86 94.7 84 94.7 82 94.7 82 96.7 84 96.7 86 96.7" fill="#245c93"/>
      <polygon points="84 296.6 82 296.6 82 298.6 82 300.6 84 300.6 84 298.6 84 296.6" fill="#daded5"/>
      <polygon points="82 270.6 80 270.6 78 270.6 78 272.6 76 272.6 76 274.6 74 274.6 74 276.6 74 278.6 72 278.6 72 280.6 72 282.6 72 284.6 74 284.6 74 282.6 74 280.6 76 280.6 76 278.6 76 276.6 78 276.6 78 274.6 80 274.6 80 272.6 82 272.6 84 272.6 84 270.6 84 268.6 82 268.6 82 270.6" fill="#daded5"/>
      <polygon points="84 248.7 86 248.7 86 246.7 88 246.7 88 244.7 90 244.7 90 242.7 90 240.7 92 240.7 92 238.7 92 236.7 90 236.7 90 234.7 88 234.7 86 234.7 86 232.7 84 232.7 82 232.7 82 230.7 80 230.7 80 228.7 78 228.7 76 228.7 76 226.7 74 226.7 74 224.7 74 222.7 72 222.7 70 222.7 70 220.7 68 220.7 68 218.7 66 218.7 66 216.7 64 216.7 62 216.7 62 214.7 62 212.7 60 212.7 60 210.7 58 210.7 58 208.7 56 208.7 56 206.7 54 206.7 54 204.7 54 202.7 52 202.7 52 200.7 50 200.7 50 198.7 48 198.7 48 196.7 48 194.7 46 194.7 46 192.7 46 190.7 44 190.7 44 188.7 42 188.7 42 190.7 42 192.7 42 194.7 42 196.7 42 198.7 44 198.7 44 200.7 46 200.7 46 202.7 48 202.7 48 204.7 50 204.7 50 206.7 50 208.7 52 208.7 54 208.7 54 210.7 56 210.7 56 212.7 58 212.7 58 214.7 60 214.7 60 216.7 60 218.7 62 218.7 64 218.7 64 220.7 66 220.7 66 222.7 68 222.7 68 224.7 70 224.7 72 224.7 72 226.7 72 228.7 74 228.7 74 230.7 76 230.7 78 230.7 78 232.7 80 232.7 80 234.7 82 234.7 84 234.7 84 236.7 86 236.7 88 236.7 88 238.7 88 240.7 88 242.7 86 242.7 86 244.7 84 244.7 84 246.7 82 246.7 82 248.7 82 250.7 80 250.7 80 252.7 78 252.7 78 254.7 78 256.6 76 256.6 76 258.6 74 258.6 74 260.6 72 260.6 72 262.6 72 264.6 70 264.6 70 266.6 68 266.6 68 268.6 70 268.6 72 268.6 72 266.6 74 266.6 74 264.6 74 262.6 76 262.6 76 260.6 78 260.6 78 258.6 80 258.6 80 256.6 80 254.7 82 254.7 82 252.7 84 252.7 84 250.7 84 248.7" fill="#daded5"/>
      <polygon points="82 296.6 84 296.6 84 294.6 84 292.6 84 290.6 84 288.6 84 286.6 86 286.6 86 284.6 86 282.6 88 282.6 88 280.6 90 280.6 90 278.6 90 276.6 92 276.6 92 274.6 94 274.6 94 272.6 96 272.6 96 270.6 96 268.6 96 266.6 98 266.6 98 264.6 98 262.6 96 262.6 96 260.6 94 260.6 92 260.6 92 262.6 92 264.6 90 264.6 90 266.6 88 266.6 88 268.6 86 268.6 84 268.6 84 270.6 84 272.6 82 272.6 80 272.6 80 274.6 78 274.6 78 276.6 76 276.6 76 278.6 76 280.6 74 280.6 74 282.6 74 284.6 72 284.6 72 282.6 72 280.6 72 278.6 74 278.6 74 276.6 74 274.6 76 274.6 76 272.6 78 272.6 78 270.6 80 270.6 82 270.6 82 268.6 84 268.6 84 266.6 86 266.6 86 264.6 88 264.6 88 262.6 90 262.6 90 260.6 92 260.6 92 258.6 90 258.6 88 258.6 88 256.6 86 256.6 84 256.6 84 254.7 84 252.7 82 252.7 82 254.7 80 254.7 80 256.6 80 258.6 78 258.6 78 260.6 76 260.6 76 262.6 74 262.6 74 264.6 74 266.6 72 266.6 72 268.6 70 268.6 68 268.6 68 270.6 68 272.6 66 272.6 66 274.6 64 274.6 64 276.6 62 276.6 62 274.6 62 272.6 64 272.6 64 270.6 66 270.6 66 268.6 68 268.6 68 266.6 70 266.6 70 264.6 72 264.6 72 262.6 72 260.6 74 260.6 74 258.6 76 258.6 76 256.6 78 256.6 78 254.7 78 252.7 80 252.7 80 250.7 82 250.7 82 248.7 82 246.7 84 246.7 84 244.7 86 244.7 86 242.7 88 242.7 88 240.7 88 238.7 88 236.7 86 236.7 84 236.7 84 234.7 82 234.7 80 234.7 80 232.7 78 232.7 78 230.7 76 230.7 74 230.7 74 228.7 72 228.7 72 226.7 72 224.7 70 224.7 68 224.7 68 222.7 66 222.7 66 220.7 64 220.7 64 218.7 62 218.7 60 218.7 60 216.7 60 214.7 58 214.7 58 212.7 56 212.7 56 210.7 54 210.7 54 208.7 52 208.7 50 208.7 50 206.7 50 204.7 48 204.7 48 202.7 46 202.7 46 200.7 44 200.7 44 198.7 42 198.7 42 196.7 42 194.7 40 194.7 40 196.7 40 198.7 40 200.7 40 202.7 40 204.7 40 206.7 40 208.7 40 210.7 40 212.7 42 212.7 42 214.7 42 216.7 42 218.7 42 220.7 44 220.7 44 222.7 44 224.7 44 226.7 44 228.7 46 228.7 46 230.7 46 232.7 46 234.7 48 234.7 48 236.7 48 238.7 48 240.7 50 240.7 50 242.7 50 244.7 50 246.7 52 246.7 52 248.7 52 250.7 52 252.7 52 254.7 54 254.7 54 256.6 54 258.6 54 260.6 54 262.6 54 264.6 54 266.6 54 268.6 54 270.6 54 272.6 54 274.6 54 276.6 54 278.6 54 280.6 54 282.6 54 284.6 54 286.6 54 288.6 54 290.6 56 290.6 56 292.6 58 292.6 58 294.6 58 296.6 60 296.6 60 298.6 60 300.6 62 300.6 64 300.6 66 300.6 68 300.6 68 298.6 70 298.6 70 296.6 72 296.6 72 294.6 74 294.6 74 292.6 74 290.6 76 290.6 78 290.6 78 292.6 76 292.6 76 294.6 74 294.6 74 296.6 74 298.6 72 298.6 72 300.6 74 300.6 76 300.6 78 300.6 80 300.6 82 300.6 82 298.6 82 296.6" fill="#fff"/>
      <polygon points="82 98.7 82 96.7 80 96.7 78 96.7 78 98.7 78 100.7 78 102.7 80 102.7 82 102.7 82 100.7 82 98.7" fill="#245c93"/>
      <polygon points="78 226.7 78 224.7 76 224.7 76 222.7 74 222.7 74 224.7 74 226.7 76 226.7 76 228.7 78 228.7 80 228.7 80 226.7 78 226.7" fill="#bf8327"/>
      <polygon points="78 24.6 80 24.6 82 24.6 84 24.6 86 24.6 86 26.6 88 26.6 90 26.6 92 26.6 92 28.6 94 28.6 96 28.6 96 30.6 98 30.6 100 30.6 100 32.6 102 32.6 102 34.6 104 34.6 106 34.6 106 36.6 108 36.6 110 36.6 110 38.6 112 38.6 114 38.6 114 36.6 114 34.6 112 34.6 110 34.6 108 34.6 108 32.6 106 32.6 104 32.6 104 30.6 102 30.6 102 28.6 100 28.6 98 28.6 98 26.6 96 26.6 94 26.6 94 24.6 92 24.6 90 24.6 88 24.6 88 22.6 86 22.6 84 22.6 82 22.6 80 22.6 78 22.6 76 22.6 76 24.6 76 26.6 78 26.6 78 24.6" fill="#a39b25"/>
      <polygon points="76 292.6 78 292.6 78 290.6 76 290.6 74 290.6 74 292.6 74 294.6 76 294.6 76 292.6" fill="#daded5"/>
      <polygon points="76 100.7 76 98.7 78 98.7 78 96.7 80 96.7 82 96.7 82 94.7 84 94.7 86 94.7 88 94.7 88 96.7 90 96.7 92 96.7 94 96.7 94 94.7 92 94.7 90 94.7 90 92.7 88 92.7 86 92.7 84 92.7 82 92.7 80 92.7 80 94.7 78 94.7 76 94.7 76 96.7 74 96.7 74 98.7 72 98.7 72 100.7 72 102.7 74 102.7 74 100.7 76 100.7" fill="#bf8327"/>
      <polygon points="74 298.6 74 296.6 74 294.6 72 294.6 72 296.6 70 296.6 70 298.6 68 298.6 68 300.6 70 300.6 72 300.6 72 298.6 74 298.6" fill="#daded5"/>
      <polygon points="72 220.7 72 218.7 70 218.7 70 216.7 68 216.7 66 216.7 66 218.7 68 218.7 68 220.7 70 220.7 70 222.7 72 222.7 74 222.7 74 220.7 72 220.7" fill="#bf8327"/>
      <polygon points="74 20.6 76 20.6 76 18.6 78 18.6 80 18.6 80 16.6 82 16.6 84 16.6 84 14.7 82 14.7 80 14.7 78 14.7 78 16.6 76 16.6 74 16.6 74 18.6 72 18.6 70 18.6 70 20.6 72 20.6 74 20.6" fill="#a39b25"/>
      <polygon points="66 270.6 64 270.6 64 272.6 62 272.6 62 274.6 62 276.6 64 276.6 64 274.6 66 274.6 66 272.6 68 272.6 68 270.6 68 268.6 66 268.6 66 270.6" fill="#daded5"/>
      <polygon points="64 214.7 64 212.7 64 210.7 62 210.7 62 208.7 60 208.7 60 206.7 58 206.7 56 206.7 56 208.7 58 208.7 58 210.7 60 210.7 60 212.7 62 212.7 62 214.7 62 216.7 64 216.7 66 216.7 66 214.7 64 214.7" fill="#bf8327"/>
      <polygon points="66 92.7 68 92.7 70 92.7 72 92.7 72 90.7 74 90.7 76 90.7 78 90.7 80 90.7 82 90.7 84 90.7 86 90.7 88 90.7 90 90.7 92 90.7 92 92.7 94 92.7 96 92.7 96 94.7 98 94.7 100 94.7 102 94.7 104 94.7 106 94.7 108 94.7 110 94.7 110 92.7 108 92.7 108 90.7 106 90.7 106 88.7 104 88.7 102 88.7 102 86.7 100 86.7 98 86.7 98 84.7 96 84.7 94 84.7 92 84.7 92 82.7 90 82.7 88 82.7 86 82.7 86 80.7 84 80.7 82 80.7 80 80.7 78 80.7 76 80.7 74 80.7 74 82.7 72 82.7 70 82.7 70 84.7 68 84.7 66 84.7 66 86.7 64 86.7 64 88.7 62 88.7 62 90.7 62 92.7 64 92.7 66 92.7" fill="#a39b25"/>
      <polygon points="62 22.6 64 22.6 66 22.6 68 22.6 70 22.6 70 20.6 68 20.6 66 20.6 64 20.6 62 20.6 60 20.6 58 20.6 58 22.6 60 22.6 62 22.6" fill="#a39b25"/>
      <polygon points="60 296.6 58 296.6 58 294.6 58 292.6 56 292.6 56 290.6 54 290.6 54 288.6 54 286.6 54 284.6 54 282.6 54 280.6 54 278.6 54 276.6 54 274.6 54 272.6 54 270.6 54 268.6 54 266.6 54 264.6 54 262.6 54 260.6 54 258.6 54 256.6 54 254.7 52 254.7 52 252.7 52 250.7 52 248.7 52 246.7 50 246.7 50 244.7 50 242.7 50 240.7 48 240.7 48 238.7 48 236.7 48 234.7 46 234.7 46 232.7 46 230.7 46 228.7 44 228.7 44 226.7 44 224.7 44 222.7 44 220.7 42 220.7 42 218.7 42 216.7 42 214.7 42 212.7 40 212.7 40 210.7 40 208.7 40 206.7 40 204.7 40 202.7 40 200.7 40 198.7 40 196.7 40 194.7 38 194.7 38 196.7 38 198.7 38 200.7 38 202.7 38 204.7 38 206.7 38 208.7 38 210.7 38 212.7 38 214.7 40 214.7 40 216.7 40 218.7 40 220.7 40 222.7 42 222.7 42 224.7 42 226.7 42 228.7 42 230.7 44 230.7 44 232.7 44 234.7 44 236.7 46 236.7 46 238.7 46 240.7 46 242.7 48 242.7 48 244.7 46 244.7 46 246.7 46 248.7 44 248.7 44 250.7 42 250.7 42 252.7 42 254.7 40 254.7 40 256.6 42 256.6 44 256.6 44 254.7 44 252.7 46 252.7 46 250.7 48 250.7 48 248.7 50 248.7 50 250.7 50 252.7 50 254.7 50 256.6 52 256.6 52 258.6 52 260.6 52 262.6 52 264.6 52 266.6 52 268.6 52 270.6 52 272.6 52 274.6 52 276.6 52 278.6 52 280.6 52 282.6 52 284.6 52 286.6 52 288.6 52 290.6 52 292.6 54 292.6 54 294.6 56 294.6 56 296.6 56 298.6 58 298.6 58 300.6 60 300.6 60 298.6 60 296.6" fill="#0a0a0a"/>
      <polygon points="56 298.6 56 296.6 56 294.6 54 294.6 54 292.6 52 292.6 52 290.6 52 288.6 52 286.6 52 284.6 52 282.6 52 280.6 52 278.6 52 276.6 52 274.6 52 272.6 52 270.6 52 268.6 52 266.6 52 264.6 52 262.6 52 260.6 52 258.6 52 256.6 50 256.6 50 254.7 50 252.7 50 250.7 50 248.7 48 248.7 48 250.7 46 250.7 46 252.7 44 252.7 44 254.7 44 256.6 42 256.6 40 256.6 40 258.6 38 258.6 36 258.6 36 260.6 36 262.6 34 262.6 32 262.6 32 264.6 30 264.6 30 266.6 28 266.6 26 266.6 26 268.6 24 268.6 24 270.6 22 270.6 22 272.6 20 272.6 18 272.6 18 274.6 16 274.6 16 276.6 14 276.6 12 276.6 12 278.6 10 278.6 10 280.6 8 280.6 6 280.6 6 282.6 4 282.6 2 282.6 2 284.6 0 284.6 0 286.6 0 288.6 0 290.6 0 292.6 0 294.6 0 296.6 0 298.6 0 300.6 2 300.6 4 300.6 6 300.6 8 300.6 10 300.6 12 300.6 14 300.6 16 300.6 18 300.6 20 300.6 22 300.6 24 300.6 26 300.6 28 300.6 30 300.6 32 300.6 34 300.6 36 300.6 38 300.6 40 300.6 42 300.6 44 300.6 46 300.6 48 300.6 50 300.6 52 300.6 54 300.6 56 300.6 58 300.6 58 298.6 56 298.6" fill="#181919"/>
      <polygon points="58 24.6 58 22.6 56 22.6 54 22.6 54 24.6 56 24.6 58 24.6" fill="#a39b25"/>
      <rect x="54" y="204.6" width="2" height="2" fill="#bf8327"/>
      <rect x="52" y="200.6" width="2" height="2" fill="#bf8327"/>
      <polygon points="52 196.7 50 196.7 50 194.7 48 194.7 48 196.7 48 198.7 50 198.7 50 200.7 52 200.7 52 198.7 52 196.7" fill="#bf8327"/>
      <path d="M48,192.6v2h2v2h2v4h2v4h2v2h4v2h2v2h2v4h2v2h4v2h2v2h2v2h2v2h2v2h2v2h4v2h2v2h6v2h6v2h20v-2h4v-2h6v-2h4v-2h4v-2h4v-2h4v-2h2v-4h2v-2h2v-4h2v-2h2v-4h2v-4h2v-8h2v-14h2v-14h2v-6h2v-4h-2v-4h2v-26h-2v-2h4v-2h-2v-8h-2v-22h-2v-10h-2v-8h-2v-2h-2v-2h-2v-2h-2v-2H134v-2h-8v-2h-4v-2h-4v-2h-8v-2h-4v-2h-6v-2H94v-2H90v2H82v2H78v2H74v2H72v2H70v2H68v4H66v6H64v10H60v2H58v2H54v2H52v2H50v2H48v2H46v4H44v4H42v2H40v4H38v4H36v2H34v4h4v2h2v4H38v-2H36v-2H32v-2H28v4H26v8H24v-10h2v-2h2v-2H26v-2H24v2H20v14h2v4h2v4h2v6h2v6h2v2h4v2h6v-8h2v2h2v4H42v4H36v2H34v8h2v4h2v4h2v8h2v2h2v2h2v4h2Zm100-4v2h-2v6h-2v6h-2v4h-2v4h-2v4h-2v4h-2v4h-2v2h-2v2h-4v2H114v2H104v-2H98v-2H94v-2H92v-2H90v-4H88v-2H86v-4H84v-2H82v-4H80v-6H78v-4H76v-2h2v-4H76v-6H74v-2h4v6h2v4h2v4H80v2h2v6h2v4h2v2h2v4h2v2h2v4h2v2h2v2h4v2h4v2h8v-2h14v-2h2v-2h2v-2h2v-4h2v-4h2v-4h2v-4h2v-4h2v-6h2v-6h2v-2h2ZM90,182v4h2v2h2v2h8v2h6v2h10v-2h6v-2h4v-2h2v-2h4v-4h2v-2h4v-2h2v6h-2v2h-2v2h-4v2h-4v2h-2v2h-6v2H102v-2h-2v-2H94v-2H90v-4H88v-2H86v-4h2v2Zm42-32v2h2v22h-2v2h-2v2h-6v2H104v-2H98v-2H94V160h2v-4h2v-2h2v-2h4v-2h2v-2h24v2ZM122,88.6v-2h4v-2h4v-2h4v-2h4v-2h4v-2h10v2h2v2h2v2h-2v4h-8v2H130v2h-8Zm-10,38v2h2v2h2v4h4v-2h2v-2h2v-2h4v2h4v-4h-4v-2h-2v-6h-2v-14h-2v-10h2v8h2v-2h2v-2h2v-2h4v-2h14v2h4v2h2v4h2v2h-2v2H130v-2h-2v-2h-2v4h2v2h2v2h4v2h20v-2h4v2h-2v2H132v-2h-4v-2h-2v6h2v6h2v2h4v8h-2v4h2v2h2v4h2v4h2v20h-2v2h-2v-4h2v-16h-2v-4h-2v-4h-2v-2h-2v-2H102v-2h-2v-2H98v2H96v4H94v6H92v6H90v8H88v-10h2v-6h2v-6h2v-4h2v-2h2v-2h2v-2h2v-2h2v-8h2v10h-2v2h-2v4h2v-2h2v-2h2v-2h4Zm-50-36v-2h2v-2h2v-2h4v-2h4v-2H86v2h6v2h6v2h4v2h4v2h2v2h2v2h-2v2h-2v6h-2v2h-2v2h-2v2H96v2H90v2H74v-2H70v-2h6v2H88v-2h6v-2h4v-2H74v-2H72v-4h2v-2h2v-2h4v-2H90v2h4v2h6v6h2v-2h2v-6H96v-2H92v-2H72v2H62Zm-18,50H40v-2H36v-2H34v-4h2v-4h2v-2h4v2H40v2H38v6h4v2h2Z" fill="#d18e2c"/>
      <polygon points="46 194.7 48 194.7 48 192.7 48 190.7 46 190.7 46 192.7 46 194.7" fill="#bf8327"/>
      <polygon points="44 76.7 46 76.7 46 78.7 48 78.7 48 80.7 50 80.7 50 78.7 50 76.7 48 76.7 48 74.7 46 74.7 46 72.7 44 72.7 44 74.7 44 76.7" fill="#a39b25"/>
      <polygon points="42 190.7 42 188.7 40 188.7 40 190.7 40 192.7 40 194.7 42 194.7 42 192.7 42 190.7" fill="#0a0a0a"/>
      <polygon points="42 102.7 44 102.7 44 100.7 44 98.7 46 98.7 46 96.7 46 94.7 48 94.7 48 92.7 50 92.7 50 90.7 52 90.7 52 88.7 54 88.7 54 86.7 56 86.7 58 86.7 58 84.7 60 84.7 60 82.7 62 82.7 64 82.7 64 80.7 64 78.7 64 76.7 64 74.7 64 72.7 66 72.7 66 70.7 66 68.7 66 66.7 68 66.7 68 64.7 68 62.6 70 62.6 70 60.6 72 60.6 72 58.6 74 58.6 74 56.6 76 56.6 78 56.6 78 54.6 80 54.6 82 54.6 82 52.6 84 52.6 86 52.6 88 52.6 90 52.6 90 50.6 92 50.6 94 50.6 94 52.6 96 52.6 98 52.6 100 52.6 100 54.6 102 54.6 104 54.6 106 54.6 106 56.6 108 56.6 110 56.6 110 58.6 112 58.6 114 58.6 116 58.6 118 58.6 118 56.6 116 56.6 114 56.6 112 56.6 112 54.6 110 54.6 108 54.6 108 52.6 106 52.6 104 52.6 102 52.6 102 50.6 100 50.6 98 50.6 96 50.6 96 48.6 94 48.6 92 48.6 90 48.6 88 48.6 88 50.6 86 50.6 84 50.6 82 50.6 80 50.6 80 52.6 78 52.6 76 52.6 76 54.6 74 54.6 72 54.6 72 56.6 70 56.6 70 58.6 68 58.6 68 60.6 66 60.6 66 62.6 66 64.7 64 64.7 64 66.7 64 68.7 64 70.7 62 70.7 62 72.7 62 74.7 62 76.7 62 78.7 62 80.7 60 80.7 58 80.7 58 82.7 56 82.7 56 84.7 54 84.7 52 84.7 52 86.7 50 86.7 50 88.7 48 88.7 48 90.7 46 90.7 46 92.7 44 92.7 44 94.7 44 96.7 42 96.7 42 98.7 42 100.7 40 100.7 40 102.7 40 104.7 42 104.7 42 102.7" fill="#bf8327"/>
      <polygon points="42 72.7 44 72.7 44 70.7 42 70.7 40 70.7 40 72.7 42 72.7" fill="#a39b25"/>
      <polygon points="40 184.7 40 186.7 42 186.7 42 188.7 44 188.7 44 190.7 46 190.7 46 188.7 46 186.7 44 186.7 44 184.7 42 184.7 42 182.7 40 182.7 40 180.7 40 178.7 40 176.7 40 174.7 38 174.7 38 172.7 38 170.7 36 170.7 36 168.7 36 166.7 34 166.7 34 164.7 34 162.7 34 160.7 34 158.7 36 158.7 36 156.7 38 156.7 40 156.7 42 156.7 42 154.7 42 152.7 44 152.7 44 150.7 44 148.7 42 148.7 42 146.7 40 146.7 40 148.7 40 150.7 40 152.7 40 154.7 38 154.7 36 154.7 34 154.7 34 152.7 32 152.7 30 152.7 30 150.7 28 150.7 28 148.7 28 146.7 28 144.7 26 144.7 26 142.7 26 140.7 26 138.7 24 138.7 24 136.7 24 134.7 22 134.7 22 132.7 22 130.7 20 130.7 20 128.7 20 126.7 20 124.7 20 122.7 20 120.7 20 118.7 20 116.7 22 116.7 24 116.7 24 114.7 26 114.7 26 116.7 28 116.7 28 118.7 30 118.7 32 118.7 32 120.7 34 120.7 36 120.7 36 122.7 38 122.7 38 124.7 40 124.7 40 122.7 40 120.7 38 120.7 38 118.7 36 118.7 34 118.7 34 116.7 34 114.7 36 114.7 36 112.7 38 112.7 38 110.7 38 108.7 40 108.7 40 106.7 40 104.7 38 104.7 38 106.7 36 106.7 36 108.7 36 110.7 34 110.7 34 112.7 32 112.7 32 114.7 30 114.7 28 114.7 28 112.7 26 112.7 24 112.7 22 112.7 22 114.7 20 114.7 18 114.7 18 116.7 18 118.7 18 120.7 18 122.7 18 124.7 18 126.7 18 128.7 18 130.7 18 132.7 20 132.7 20 134.7 20 136.7 22 136.7 22 138.7 22 140.7 24 140.7 24 142.7 24 144.7 24 146.7 26 146.7 26 148.7 26 150.7 26 152.7 28 152.7 28 154.7 30 154.7 32 154.7 32 156.7 32 158.7 32 160.7 32 162.7 32 164.7 32 166.7 32 168.7 34 168.7 34 170.7 34 172.7 36 172.7 36 174.7 36 176.7 38 176.7 38 178.7 38 180.7 38 182.7 38 184.7 40 184.7" fill="#bf8327"/>
      <polygon points="40 30.6 40 28.6 42 28.6 44 28.6 46 28.6 48 28.6 48 26.6 50 26.6 52 26.6 54 26.6 54 24.6 52 24.6 50 24.6 48 24.6 46 24.6 46 26.6 44 26.6 42 26.6 40 26.6 38 26.6 38 28.6 36 28.6 36 30.6 38 30.6 40 30.6" fill="#a39b25"/>
      <polygon points="36 256.6 36 258.6 38 258.6 40 258.6 40 256.6 38 256.6 36 256.6" fill="#0a0a0a"/>
      <polygon points="42 136.7 40 136.7 38 136.7 38 134.7 38 132.7 38 130.7 40 130.7 40 128.7 42 128.7 42 126.7 40 126.7 38 126.7 38 128.7 36 128.7 36 130.7 36 132.7 34 132.7 34 134.7 34 136.7 36 136.7 36 138.7 38 138.7 40 138.7 40 140.7 42 140.7 44 140.7 44 138.7 42 138.7 42 136.7" fill="#bf8327"/>
      <polygon points="36 60.6 38 60.6 40 60.6 42 60.6 42 62.6 44 62.6 46 62.6 46 64.7 48 64.7 48 66.7 50 66.7 50 68.7 52 68.7 54 68.7 54 66.7 52 66.7 52 64.7 50 64.7 50 62.6 48 62.6 48 60.6 46 60.6 44 60.6 44 58.6 42 58.6 40 58.6 38 58.6 38 56.6 36 56.6 34 56.6 34 58.6 36 58.6 36 60.6" fill="#a39b25"/>
      <path d="M36,34.6H34v2H32v6H30v8H28v2H56v2h6v4H60v-2H54v-2H28v4h6v-2h4v2h6v2h4v2h2v2h2v2h2v2H50v-2H48v-2H46v-2H42v-2H36v-2H34v2H28v2H26v2H24v4h2v-2H36v2h4v2h4v2h2v2h2v2h2v4H48v-2H46v-2H44v-4H40v-2H34v-2H28v2H24v2H22v6h4v-2H38v2h2v2h2v4H40v-2H38v-2H36v-2H26v2H22v10h6v2h4v4h2v2h2v2H32v-2H30v-4H26v-2H22v-2H20v4H18v6H16v4h8v2h2v2H22v-2H14v4h2v4h6v-2h6v2h4v-2h2v-2h2v-4h2v-2h2v-4h2v-4h2v-4h2v-2h2v-2h2v-2h2v-2h4v-2h2v-2h4v-10h2v-6h2v-4h2v-2h2v-2h2v-2h4v-2h4v-2h8v-2h8v2h6v2h6v2h4v2h6v2h6v2h4v2h6v2h20v2h2v2h2v2h2v2h2v8h2v10h2v22h2v8h2v2h4v6h2v8h2v-4h2v-14h-2v-4h-2v-4h-2v4h-2v2h-2v-4h2v-4h2v-14h-2v2h-4v-2h2v-2h2v-10h2v-8h-2v4h-4v-2h2v-4h2v-6h2v-6h2v-4h-2v2h-2v2h-2v2h-4v-2h2v-2h2v-2h2v-2h2v-2h4v-2h2v-2h2v-4h-2v-2h-2v-4h-2v-4h-2v4h-2v4h-2v2h-2v2h-4v-2h2v-2h2v-2h2v-4h2v-2h-2v-4h-2v-2h-6v-2H150v2h4v4h2v10h2v10h2v4h-2v-2h-2v-10h-2v-10h-2v-4h-4v-2h-2v-2h-2v-2h-4v-2h-2v-2h-4v-2h-6v-2H118v-2h-8v-2H90v2H84v2H80v2H76v2H70v2H58v2H54v2H48v2H40v2H36v4Zm56,12H86v-2H84v-2H76v-2H60v-2H78v2h8v2h2v2h4Zm-2-30h4v2h4v2h8v2h4v2h8v2h6v2h6v2h4v2h4v2h2v2h2v2h2v6h2v4h2v12h-2v-8h-2v-2h-2v-4h-2v-4h-2v-4h-2v-2h-2v-4h-8v-2h-4v-2h-6v-2h-8v-2h-2v-2H96v-2H94v-2H90Zm-14,8v-2H88v2h6v2h4v2h4v2h2v2h4v2h6v4h4v-2h2v2h6v2h2v2h4v4h2v2h2v8h-2v-4h-2v-4h-2v-2h-4v-2h-4v-2h-6v-2h-2v-2h-4v-2h-4v-2h-4v-2h-2v-2H96v-2H92v-2H86v-2H78v2H76Zm-18,8v-2H84v2h6v2h4v2h4v2h4v2h2v2h2v2h4v2h4v2h2v2h2v4h-2v-2h-2v-2h-2v-2h-2v-2h-4v-2h-4v-2h-2v-2H96v-2H94v-2H88v-2H82v-2H60v2H58Z" fill="#c6ba28"/>
      <polygon points="34 260.6 32 260.6 30 260.6 30 262.6 28 262.6 28 264.6 26 264.6 26 266.6 28 266.6 30 266.6 30 264.6 32 264.6 32 262.6 34 262.6 36 262.6 36 260.6 36 258.6 34 258.6 34 260.6" fill="#0a0a0a"/>
      <rect x="30" y="186.6" width="2" height="2" fill="#181919"/>
      <polygon points="30 78.7 32 78.7 34 78.7 36 78.7 36 80.7 38 80.7 38 82.7 40 82.7 40 84.7 42 84.7 42 82.7 42 80.7 40 80.7 40 78.7 38 78.7 38 76.7 36 76.7 34 76.7 32 76.7 30 76.7 28 76.7 26 76.7 26 78.7 28 78.7 30 78.7" fill="#a39b25"/>
      <polygon points="26 120.7 24 120.7 24 122.7 24 124.7 24 126.7 24 128.7 24 130.7 26 130.7 26 128.7 26 126.7 26 124.7 26 122.7 28 122.7 28 120.7 28 118.7 26 118.7 26 120.7" fill="#bf8327"/>
      <polygon points="24 92.7 26 92.7 26 94.7 28 94.7 30 94.7 30 96.7 30 98.7 32 98.7 32 100.7 34 100.7 36 100.7 36 98.7 34 98.7 34 96.7 32 96.7 32 94.7 32 92.7 30 92.7 28 92.7 28 90.7 26 90.7 24 90.7 22 90.7 22 92.7 24 92.7" fill="#a39b25"/>
      <polygon points="18 116.7 18 114.7 16 114.7 16 112.7 16 110.7 14 110.7 14 108.7 14 106.7 16 106.7 18 106.7 20 106.7 22 106.7 22 108.7 24 108.7 26 108.7 26 106.7 24 106.7 24 104.7 22 104.7 20 104.7 18 104.7 16 104.7 16 102.7 16 100.7 18 100.7 18 98.7 18 96.7 18 94.7 20 94.7 20 92.7 20 90.7 22 90.7 22 88.7 22 86.7 22 84.7 22 82.7 22 80.7 24 80.7 26 80.7 26 78.7 24 78.7 22 78.7 22 76.7 22 74.7 22 72.7 24 72.7 24 70.7 26 70.7 28 70.7 28 68.7 30 68.7 32 68.7 34 68.7 34 70.7 36 70.7 38 70.7 40 70.7 40 68.7 38 68.7 36 68.7 36 66.7 34 66.7 32 66.7 30 66.7 28 66.7 26 66.7 26 68.7 24 68.7 24 66.7 24 64.7 26 64.7 26 62.6 28 62.6 28 60.6 30 60.6 32 60.6 34 60.6 34 58.6 32 58.6 30 58.6 28 58.6 28 56.6 28 54.6 30 54.6 32 54.6 34 54.6 36 54.6 38 54.6 40 54.6 42 54.6 44 54.6 46 54.6 48 54.6 50 54.6 52 54.6 54 54.6 54 56.6 56 56.6 58 56.6 60 56.6 60 58.6 62 58.6 62 56.6 62 54.6 60 54.6 58 54.6 56 54.6 56 52.6 54 52.6 52 52.6 50 52.6 48 52.6 46 52.6 44 52.6 42 52.6 40 52.6 38 52.6 36 52.6 34 52.6 32 52.6 30 52.6 28 52.6 28 50.6 30 50.6 30 48.6 30 46.6 30 44.6 30 42.6 32 42.6 32 40.6 32 38.6 32 36.6 34 36.6 34 34.6 36 34.6 36 32.6 36 30.6 34 30.6 34 32.6 32 32.6 32 34.6 30 34.6 30 36.6 30 38.6 30 40.6 28 40.6 28 42.6 28 44.6 28 46.6 28 48.6 26 48.6 26 50.6 26 52.6 26 54.6 26 56.6 24 56.6 24 58.6 24 60.6 24 62.6 22 62.6 22 64.7 22 66.7 22 68.7 20 68.7 20 70.7 20 72.7 20 74.7 20 76.7 20 78.7 20 80.7 20 82.7 20 84.7 20 86.7 20 88.7 18 88.7 18 90.7 18 92.7 16 92.7 16 94.7 16 96.7 16 98.7 14 98.7 14 100.7 14 102.7 14 104.7 12 104.7 12 106.7 12 108.7 12 110.7 12 112.7 14 112.7 14 114.7 14 116.7 16 116.7 16 118.7 16 120.7 18 120.7 18 118.7 18 116.7" fill="#a39b25"/>
      <polygon points="4 280.6 4 278.6 6 278.6 8 278.6 8 276.6 10 276.6 10 274.6 12 274.6 14 274.6 14 272.6 16 272.6 16 270.6 18 270.6 20 270.6 20 268.6 22 268.6 22 266.6 24 266.6 26 266.6 26 264.6 28 264.6 28 262.6 30 262.6 30 260.6 32 260.6 34 260.6 34 258.6 36 258.6 36 256.6 38 256.6 40 256.6 40 254.7 42 254.7 42 252.7 42 250.7 44 250.7 44 248.7 46 248.7 46 246.7 46 244.7 48 244.7 48 242.7 46 242.7 46 240.7 46 238.7 46 236.7 44 236.7 44 234.7 44 232.7 44 230.7 42 230.7 42 228.7 42 226.7 42 224.7 42 222.7 40 222.7 40 220.7 40 218.7 40 216.7 40 214.7 38 214.7 38 212.7 38 210.7 38 208.7 38 206.7 38 204.7 38 202.7 38 200.7 38 198.7 38 196.7 38 194.7 40 194.7 40 192.7 40 190.7 40 188.7 42 188.7 42 186.7 40 186.7 40 184.7 38 184.7 38 186.7 38 188.7 36 188.7 34 188.7 34 190.7 34 192.7 32 192.7 32 194.7 30 194.7 30 196.7 28 196.7 28 198.7 28 200.7 26 200.7 26 202.7 24 202.7 22 202.7 22 204.7 20 204.7 20 206.7 18 206.7 16 206.7 16 208.7 14 208.7 12 208.7 12 210.7 10 210.7 10 212.7 10 214.7 8 214.7 8 216.7 8 218.7 6 218.7 6 220.7 6 222.7 4 222.7 4 224.7 4 226.7 2 226.7 2 228.7 0 228.7 0 230.7 0 232.7 0 234.7 0 236.7 0 238.7 0 240.7 0 242.7 0 244.7 0 246.7 0 248.7 0 250.7 0 252.7 0 254.7 0 256.6 0 258.6 0 260.6 0 262.6 0 264.6 0 266.6 0 268.6 0 270.6 0 272.6 0 274.6 0 276.6 0 278.6 0 280.6 2 280.6 4 280.6" fill="#181919"/>
      <polygon points="2 282.6 4 282.6 6 282.6 6 280.6 8 280.6 10 280.6 10 278.6 12 278.6 12 276.6 14 276.6 16 276.6 16 274.6 18 274.6 18 272.6 20 272.6 22 272.6 22 270.6 24 270.6 24 268.6 26 268.6 26 266.6 24 266.6 22 266.6 22 268.6 20 268.6 20 270.6 18 270.6 16 270.6 16 272.6 14 272.6 14 274.6 12 274.6 10 274.6 10 276.6 8 276.6 8 278.6 6 278.6 4 278.6 4 280.6 2 280.6 0 280.6 0 282.6 0 284.6 2 284.6 2 282.6" fill="#0a0a0a"/>
      <polygon points="2 226.7 4 226.7 4 224.7 4 222.7 6 222.7 6 220.7 6 218.7 8 218.7 8 216.7 8 214.7 10 214.7 10 212.7 10 210.7 12 210.7 12 208.7 14 208.7 16 208.7 16 206.7 18 206.7 20 206.7 20 204.7 22 204.7 22 202.7 24 202.7 26 202.7 26 200.7 28 200.7 28 198.7 28 196.7 30 196.7 30 194.7 32 194.7 32 192.7 34 192.7 34 190.7 34 188.7 36 188.7 38 188.7 38 186.7 38 184.7 38 182.7 36 182.7 34 182.7 34 184.7 32 184.7 30 184.7 28 184.7 28 186.7 26 186.7 24 186.7 24 188.7 22 188.7 20 188.7 18 188.7 18 190.7 16 190.7 14 190.7 12 190.7 10 190.7 10 192.7 8 192.7 6 192.7 4 192.7 4 194.7 2 194.7 0 194.7 0 196.7 2 196.7 4 196.7 6 196.7 6 194.7 8 194.7 10 194.7 12 194.7 12 192.7 14 192.7 16 192.7 18 192.7 20 192.7 20 190.7 22 190.7 24 190.7 26 190.7 26 188.7 28 188.7 30 188.7 30 186.7 32 186.7 32 188.7 30 188.7 30 190.7 30 192.7 28 192.7 26 192.7 26 194.7 26 196.7 24 196.7 24 198.7 22 198.7 20 198.7 20 200.7 18 200.7 18 202.7 16 202.7 16 204.7 14 204.7 14 206.7 12 206.7 10 206.7 10 208.7 8 208.7 8 210.7 8 212.7 6 212.7 6 214.7 6 216.7 4 216.7 4 218.7 4 220.7 2 220.7 2 222.7 2 224.7 0 224.7 0 226.7 0 228.7 2 228.7 2 226.7" fill="#0a0a0a"/>
      <polygon points="2 222.7 2 220.7 4 220.7 4 218.7 4 216.7 6 216.7 6 214.7 6 212.7 8 212.7 8 210.7 8 208.7 10 208.7 10 206.7 12 206.7 14 206.7 14 204.7 16 204.7 16 202.7 18 202.7 18 200.7 20 200.7 20 198.7 22 198.7 24 198.7 24 196.7 26 196.7 26 194.7 26 192.7 28 192.7 30 192.7 30 190.7 30 188.7 28 188.7 26 188.7 26 190.7 24 190.7 22 190.7 20 190.7 20 192.7 18 192.7 16 192.7 14 192.7 12 192.7 12 194.7 10 194.7 8 194.7 6 194.7 6 196.7 4 196.7 2 196.7 0 196.7 0 198.7 0 200.7 0 202.7 0 204.7 0 206.7 0 208.7 0 210.7 0 212.7 0 214.7 0 216.7 0 218.7 0 220.7 0 222.7 0 224.7 2 224.7 2 222.7" fill="#181919"/>
      <polygon points="96 168 98 168 100 168 102 168 104 168 106 168 108 168 110 168 112 168 114 168 116 168 118 168 120 168 122 168 124 168 126 168 128 168 130 168 132 168 132 166 132 164 130 164 130 162 128 162 126 162 124 162 122 162 120 162 118 162 116 162 114 162 112 162 110 162 108 162 106 162 104 162 102 162 100 162 98 162 98 164 96 164 96 166 96 168"/>
      <polygon points="96 192 98 192 100 192 100 194 102 194 102 196 104 196 106 196 108 196 110 196 112 196 114 196 116 196 118 196 120 196 122 196 122 194 124 194 126 194 128 194 128 192 130 192 130 190 132 190 134 190 134 188 136 188 138 188 138 186 140 186 140 184 142 184 142 182 142 180 142 178 140 178 140 180 138 180 136 180 136 182 134 182 134 184 134 186 132 186 130 186 130 188 128 188 128 190 126 190 124 190 124 192 122 192 120 192 118 192 118 194 116 194 114 194 112 194 110 194 108 194 108 192 106 192 104 192 102 192 102 190 100 190 98 190 96 190 94 190 94 192 96 192" fill="#bf8327"/>
      <polygon points="124 168 122 168 122 170 124 170 126 170 128 170 128 168 126 168 124 168" fill="#fff"/>
      <polygon points="124 162 126 162 128 162 130 162 130 160 130 158 128 158 126 158 124 158 124 160 124 162" fill="#fff"/>
      <polygon points="122 162 124 162 124 160 124 158 122 158 122 160 122 162" fill="#ccc"/>
      <rect x="120" y="168" width="2" height="2" fill="#ccc"/>
      <polygon points="118 168 116 168 116 170 118 170 120 170 120 168 118 168" fill="#fff"/>
      <polygon points="116 162 118 162 120 162 122 162 122 160 122 158 120 158 118 158 116 158 116 160 116 162" fill="#fff"/>
      <rect x="114" y="168" width="2" height="2" fill="#ccc"/>
      <polygon points="114 162 116 162 116 160 116 158 114 158 114 160 114 162" fill="#ccc"/>
      <polygon points="112 168 110 168 110 170 112 170 114 170 114 168 112 168" fill="#fff"/>
      <rect x="108" y="168" width="2" height="2" fill="#ccc"/>
      <polygon points="108 162 110 162 112 162 114 162 114 160 114 158 112 158 110 158 108 158 108 160 108 162" fill="#fff"/>
      <polygon points="106 168 104 168 104 170 106 170 108 170 108 168 106 168" fill="#fff"/>
      <polygon points="106 162 108 162 108 160 108 158 106 158 106 160 106 162" fill="#ccc"/>
      <polygon points="104 162 106 162 106 160 106 158 104 158 102 158 102 160 100 160 100 162 102 162 104 162" fill="#fff"/>
      <polygon points="132 172 130 172 128 172 128 174 126 174 124 174 122 174 120 174 118 174 116 174 114 174 112 174 110 174 108 174 106 174 104 174 102 174 102 172 100 172 98 172 98 170 96 170 94 170 94 172 94 174 94 176 96 176 98 176 98 178 100 178 102 178 104 178 104 180 106 180 108 180 110 180 112 180 114 180 116 180 118 180 120 180 122 180 124 180 124 178 126 178 128 178 130 178 130 176 132 176 132 174 134 174 134 172 134 170 132 170 132 172" fill="#ad645d"/>
      <polygon points="130 156 128 156 126 156 124 156 122 156 120 156 118 156 116 156 114 156 112 156 110 156 108 156 106 156 104 156 102 156 100 156 100 158 98 158 98 160 98 162 100 162 100 160 102 160 102 158 104 158 106 158 108 158 110 158 112 158 114 158 116 158 118 158 120 158 122 158 124 158 126 158 128 158 130 158 130 160 130 162 130 164 132 164 132 166 132 168 130 168 128 168 128 170 126 170 124 170 122 170 120 170 118 170 116 170 114 170 112 170 110 170 108 170 106 170 104 170 104 168 102 168 100 168 98 168 96 168 96 166 96 164 94 164 94 166 94 168 94 170 96 170 98 170 98 172 100 172 102 172 102 174 104 174 106 174 108 174 110 174 112 174 114 174 116 174 118 174 120 174 122 174 124 174 126 174 128 174 128 172 130 172 132 172 132 170 134 170 134 168 134 166 134 164 134 162 134 160 134 158 134 156 132 156 130 156" fill="#cc766d"/>
      <rect x="96" y="162" width="2" height="2" fill="#cc766d"/>
      <polygon points="128 148 126 148 124 148 122 148 120 148 118 148 116 148 114 148 112 148 110 148 108 148 106 148 106 150 104 150 104 152 102 152 100 152 100 154 98 154 98 156 96 156 96 158 96 160 94 160 94 162 94 164 96 164 96 162 98 162 98 160 98 158 100 158 100 156 102 156 104 156 106 156 108 156 110 156 112 156 114 156 116 156 118 156 120 156 122 156 124 156 126 156 128 156 130 156 132 156 134 156 134 154 134 152 132 152 132 150 130 150 130 148 128 148" fill="#ad645d"/>
      <polygon points="90 190 92 190 94 190 94 188 92 188 92 186 90 186 90 188 90 190" fill="#bf8327"/>
      <polygon points="86 180 86 182 86 184 88 184 88 186 90 186 90 184 90 182 88 182 88 180 86 180" fill="#bf8327"/>
    </g>
  </g>
</svg>
